<svg aria-hidden="true" style="position: absolute; width: 0; height: 0; overflow: hidden;" version="1.1" xmlns="http://www.w3.org/2000/svg" xmlns:xlink="http://www.w3.org/1999/xlink">
    <defs>        
        <symbol id='icon-hide' viewBox="0 0 18 18">        
            <path d="M0.75 9C0.75 9 3.75 3 9 3C14.25 3 17.25 9 17.25 9C17.25 9 14.25 15 9 15C3.75 15 0.75 9 0.75 9Z" stroke="#1D1E21" stroke-width="1.5" stroke-linecap="round" stroke-linejoin="round" />
            <path d="M9 11.25C10.2426 11.25 11.25 10.2426 11.25 9C11.25 7.75736 10.2426 6.75 9 6.75C7.75736 6.75 6.75 7.75736 6.75 9C6.75 10.2426 7.75736 11.25 9 11.25Z" stroke="#1D1E21" stroke-width="1.5" stroke-linecap="round" stroke-linejoin="round" />
        </symbol>
        <symbol id='icon-show' viewBox="0 0 18 18">
            <path d="M13.455 13.455C12.1729 14.4323 10.6118 14.9737 9 15C3.75 15 0.75 9.00002 0.75 9.00002C1.68292 7.26144 2.97685 5.74247 4.545 4.54502M7.425 3.18002C7.94125 3.05918 8.4698 2.99877 9 3.00002C14.25 3.00002 17.25 9.00002 17.25 9.00002C16.7947 9.85172 16.2518 10.6536 15.63 11.3925M10.59 10.59C10.384 10.8111 10.1356 10.9884 9.85961 11.1114C9.58362 11.2343 9.28568 11.3005 8.98357 11.3058C8.68146 11.3111 8.38137 11.2555 8.10121 11.1424C7.82104 11.0292 7.56654 10.8608 7.35288 10.6471C7.13923 10.4335 6.97079 10.179 6.85763 9.89881C6.74447 9.61865 6.68889 9.31856 6.69423 9.01645C6.69956 8.71434 6.76568 8.4164 6.88866 8.1404C7.01163 7.86441 7.18894 7.61601 7.41 7.41002" stroke="#1D1E21" stroke-width="1.5" stroke-linecap="round" stroke-linejoin="round" />
            <path d="M0.75 0.75L17.25 17.25" stroke="#1D1E21" stroke-width="1.5" stroke-linecap="round" stroke-linejoin="round" />
        </symbol>
        <symbol id="icon-close" viewBox="0 0 32 32">
            <path fill="none" stroke-linejoin="round" stroke-linecap="round" stroke-miterlimit="4" stroke-width="2.6667" d="M24 8l-16 16"></path>
            <path fill="none" stroke-linejoin="round" stroke-linecap="round" stroke-miterlimit="4" stroke-width="2.6667" d="M8 8l16 16"></path>
        </symbol>
        <symbol id="icon-products" viewBox="0 0 20 20">
            <path d="M12.8573 10.7143C16.4077 10.7143 19.2859 9.4351 19.2859 7.85714C19.2859 6.27919 16.4077 5 12.8573 5C9.30688 5 6.42871 6.27919 6.42871 7.85714C6.42871 9.4351 9.30688 10.7143 12.8573 10.7143Z" stroke="#1D1E21" stroke-width="1.5" stroke-linecap="round" stroke-linejoin="round" />
            <path d="M6.42871 7.85718V16.4286C6.42871 18 9.28585 19.2857 12.8573 19.2857C16.4287 19.2857 19.2859 18 19.2859 16.4286V7.85718" stroke="#1D1E21" stroke-width="1.5" stroke-linecap="round" stroke-linejoin="round" />
            <path d="M19.2858 12.1429C19.2858 13.7143 16.4286 15 12.8572 15C9.28578 15 6.42864 13.7143 6.42864 12.1429M12.7144 2.14289C11.0451 1.11271 9.10197 0.614486 7.14293 0.71432C3.58578 0.71432 0.714355 2.00003 0.714355 3.57146C0.714355 4.41432 1.54293 5.17146 2.85721 5.71432" stroke="#1D1E21" stroke-width="1.5" stroke-linecap="round" stroke-linejoin="round" />
            <path d="M2.85721 14.2857C1.54293 13.7428 0.714355 12.9857 0.714355 12.1428V3.57141" stroke="#1D1E21" stroke-width="1.5" stroke-linecap="round" stroke-linejoin="round" />
            <path d="M2.85721 10C1.54293 9.45718 0.714355 8.70003 0.714355 7.85718" stroke="#1D1E21" stroke-width="1.5" stroke-linecap="round" stroke-linejoin="round" />
        </symbol>
        <symbol id="icon-stakeholders" viewBox="0 0 20 20">
            <path d="M17.5 16.6666C17.5 15.215 16.1083 13.9808 14.1667 13.5225M12.5 16.6666C12.5 14.825 10.2617 13.3333 7.5 13.3333C4.73833 13.3333 2.5 14.825 2.5 16.6666M12.5 10.8333C13.3841 10.8333 14.2319 10.4821 14.857 9.85698C15.4821 9.23186 15.8333 8.38401 15.8333 7.49996C15.8333 6.6159 15.4821 5.76806 14.857 5.14294C14.2319 4.51782 13.3841 4.16663 12.5 4.16663M7.5 10.8333C6.61594 10.8333 5.7681 10.4821 5.14298 9.85698C4.51786 9.23186 4.16667 8.38401 4.16667 7.49996C4.16667 6.6159 4.51786 5.76806 5.14298 5.14294C5.7681 4.51782 6.61594 4.16663 7.5 4.16663C8.38405 4.16663 9.2319 4.51782 9.85702 5.14294C10.4821 5.76806 10.8333 6.6159 10.8333 7.49996C10.8333 8.38401 10.4821 9.23186 9.85702 9.85698C9.2319 10.4821 8.38405 10.8333 7.5 10.8333Z" stroke="#1D1E21" stroke-width="1.5" stroke-linecap="round" stroke-linejoin="round" />
        </symbol>
        <symbol id="icon-logout" viewBox="0 0 13 14">
            <path fill-rule="evenodd" clip-rule="evenodd" d="M2 0.333374C1.46957 0.333374 0.960859 0.544088 0.585786 0.91916C0.210714 1.29423 0 1.80294 0 2.33337V11.6667C0 12.1971 0.210714 12.7058 0.585786 13.0809C0.960859 13.456 1.46957 13.6667 2 13.6667H6C6.53043 13.6667 7.03914 13.456 7.41421 13.0809C7.78929 12.7058 8 12.1971 8 11.6667V2.33337C8 1.80294 7.78929 1.29423 7.41421 0.91916C7.03914 0.544088 6.53043 0.333374 6 0.333374H2ZM8.862 3.86204C8.98702 3.73706 9.15656 3.66685 9.33333 3.66685C9.51011 3.66685 9.67965 3.73706 9.80467 3.86204L12.4713 6.52871C12.5963 6.65373 12.6665 6.82326 12.6665 7.00004C12.6665 7.17682 12.5963 7.34635 12.4713 7.47137L9.80467 10.138C9.67893 10.2595 9.51053 10.3267 9.33573 10.3252C9.16093 10.3236 8.99373 10.2535 8.87012 10.1299C8.74652 10.0063 8.6764 9.83911 8.67488 9.66431C8.67336 9.48951 8.74056 9.32111 8.862 9.19537L10.3907 7.66671H4.66667C4.48986 7.66671 4.32029 7.59647 4.19526 7.47144C4.07024 7.34642 4 7.17685 4 7.00004C4 6.82323 4.07024 6.65366 4.19526 6.52864C4.32029 6.40361 4.48986 6.33337 4.66667 6.33337H10.3907L8.862 4.80471C8.73702 4.67969 8.66681 4.51015 8.66681 4.33337C8.66681 4.1566 8.73702 3.98706 8.862 3.86204Z" fill="white" />
        </symbol>
        <symbol id="icon-dashboard" viewBox="0 0 12 12">
            <path d="M0.666667 6.66667H4.66667C5.03333 6.66667 5.33333 6.36667 5.33333 6V0.666667C5.33333 0.3 5.03333 0 4.66667 0H0.666667C0.3 0 0 0.3 0 0.666667V6C0 6.36667 0.3 6.66667 0.666667 6.66667ZM0.666667 12H4.66667C5.03333 12 5.33333 11.7 5.33333 11.3333V8.66667C5.33333 8.3 5.03333 8 4.66667 8H0.666667C0.3 8 0 8.3 0 8.66667V11.3333C0 11.7 0.3 12 0.666667 12ZM7.33333 12H11.3333C11.7 12 12 11.7 12 11.3333V6C12 5.63333 11.7 5.33333 11.3333 5.33333H7.33333C6.96667 5.33333 6.66667 5.63333 6.66667 6V11.3333C6.66667 11.7 6.96667 12 7.33333 12ZM6.66667 0.666667V3.33333C6.66667 3.7 6.96667 4 7.33333 4H11.3333C11.7 4 12 3.7 12 3.33333V0.666667C12 0.3 11.7 0 11.3333 0H7.33333C6.96667 0 6.66667 0.3 6.66667 0.666667Z"  />
        </symbol>
        <symbol id="icon-order" viewBox="0 0 14 14">
             <path d="M4.6665 11C3.93317 11 3.33984 11.6 3.33984 12.3334C3.33984 13.0667 3.93317 13.6667 4.6665 13.6667C5.39984 13.6667 5.99984 13.0667 5.99984 12.3334C5.99984 11.6 5.39984 11 4.6665 11ZM0.666504 1.00004C0.666504 1.36671 0.966504 1.66671 1.33317 1.66671H1.99984L4.39984 6.72671L3.49984 8.35337C3.01317 9.24671 3.65317 10.3334 4.6665 10.3334H11.9998C12.3665 10.3334 12.6665 10.0334 12.6665 9.66671C12.6665 9.30004 12.3665 9.00004 11.9998 9.00004H4.6665L5.39984 7.66671H10.3665C10.8665 7.66671 11.3065 7.39337 11.5332 6.98004L13.9198 2.65337C13.976 2.55232 14.0048 2.43836 14.0035 2.32274C14.0021 2.20713 13.9705 2.09389 13.9119 1.99422C13.8533 1.89454 13.7697 1.8119 13.6694 1.75445C13.5691 1.69701 13.4555 1.66677 13.3398 1.66671H3.47317L3.0265 0.713375C2.97292 0.599579 2.88804 0.503402 2.78178 0.436104C2.67552 0.368806 2.55228 0.333172 2.4265 0.333375H1.33317C0.966504 0.333375 0.666504 0.633375 0.666504 1.00004ZM11.3332 11C10.5998 11 10.0065 11.6 10.0065 12.3334C10.0065 13.0667 10.5998 13.6667 11.3332 13.6667C12.0665 13.6667 12.6665 13.0667 12.6665 12.3334C12.6665 11.6 12.0665 11 11.3332 11Z"  />
        </symbol>
        <symbol id="icon-product" viewBox="0 0 12 14">
            <path d="M7.99997 5.42071V1.66671H8.66663C8.84345 1.66671 9.01302 1.59647 9.13804 1.47145C9.26306 1.34642 9.3333 1.17685 9.3333 1.00004C9.3333 0.82323 9.26306 0.65366 9.13804 0.528636C9.01302 0.403612 8.84345 0.333374 8.66663 0.333374H3.3333C3.15649 0.333374 2.98692 0.403612 2.8619 0.528636C2.73687 0.65366 2.66663 0.82323 2.66663 1.00004C2.66663 1.17685 2.73687 1.34642 2.8619 1.47145C2.98692 1.59647 3.15649 1.66671 3.3333 1.66671H3.99997V5.42071L0.5153 10.5414C-0.388033 11.8694 0.5633 13.6667 2.16863 13.6667H9.83064C11.4373 13.6667 12.388 11.8694 11.484 10.5414L7.99997 5.42137V5.42071Z"  />
        </symbol>
        <symbol id="icon-supplier" viewBox="0 0 12 14">
            <path d="M8.66667 9.33335H6.66667V11.3334H5.33333V9.33335H3.33333V8.00002H5.33333V6.00002H6.66667V8.00002H8.66667M12 3.33335H10.2333L11 1.23335L9.43333 0.666687L8.46 3.33335H0V4.66669L1.33333 8.66669L0 12.6667V14H12V12.6667L10.6667 8.66669L12 4.66669V3.33335Z"  />
        </symbol>
        <symbol id="icon-customer" viewBox="0 0 14 11">
            <path d="M9.66683 9.33333V10.6667H0.333496V9.33333C0.333496 9.33333 0.333496 6.66666 5.00016 6.66666C9.66683 6.66666 9.66683 9.33333 9.66683 9.33333ZM7.3335 2.99999C7.3335 2.53851 7.19665 2.08738 6.94026 1.70366C6.68387 1.31995 6.31945 1.02088 5.89309 0.844276C5.46673 0.667671 4.99757 0.621463 4.54495 0.711495C4.09233 0.801528 3.67657 1.02376 3.35025 1.35008C3.02392 1.6764 2.8017 2.09216 2.71166 2.54478C2.62163 2.99741 2.66784 3.46656 2.84444 3.89292C3.02105 4.31928 3.32012 4.6837 3.70383 4.94009C4.08755 5.19648 4.53867 5.33333 5.00016 5.33333C5.619 5.33333 6.21249 5.0875 6.65008 4.64991C7.08766 4.21233 7.3335 3.61883 7.3335 2.99999ZM9.62683 6.66666C10.0367 6.98383 10.372 7.38695 10.6093 7.84767C10.8465 8.30838 10.98 8.8155 11.0002 9.33333V10.6667H13.6668V9.33333C13.6668 9.33333 13.6668 6.91333 9.62683 6.66666ZM9.00016 0.666661C8.54129 0.664106 8.09251 0.801298 7.7135 1.05999C8.11846 1.62582 8.3362 2.30419 8.3362 2.99999C8.3362 3.6958 8.11846 4.37417 7.7135 4.94C8.09251 5.19869 8.54129 5.33588 9.00016 5.33333C9.619 5.33333 10.2125 5.0875 10.6501 4.64991C11.0877 4.21233 11.3335 3.61883 11.3335 2.99999C11.3335 2.38116 11.0877 1.78766 10.6501 1.35008C10.2125 0.912494 9.619 0.666661 9.00016 0.666661Z"  />
        </symbol>
        <symbol id="icon-filter" viewBox="0 0 14 12">
             <path d="M12.8334 0.75H1.16675L5.83341 6.26833V10.0833L8.16675 11.25V6.26833L12.8334 0.75Z" stroke="white" stroke-width="1.5" stroke-linecap="round" stroke-linejoin="round" />
        </symbol>
        <symbol id="icon-add" viewBox="0 0 12 12">
            <path d="M13 7H1M7 1V13V1Z" stroke="white" stroke-width="1.5" stroke-linecap="round" stroke-linejoin="round" />
        </symbol>
        <symbol id="icon-close" viewBox="0 0 26 26">
            <path d="M19.5 6.5L6.5 19.5" stroke-width="2" stroke-linecap="round" stroke-linejoin="round" />
            <path d="M6.5 6.5L19.5 19.5" stroke-width="2" stroke-linecap="round" stroke-linejoin="round" />
        </symbol>
        <symbol id="icon-menu" viewBox="0 0 16 16">
            <path d="M4 10L8 6L12 10" stroke-width="1.5" stroke-linecap="round" stroke-linejoin="round" />
        </symbol>
        <symbol id="icon-date" viewBox="0 0 16 16">
            <path d="M12.6667 2.66602H3.33333C2.59695 2.66602 2 3.26297 2 3.99935V13.3327C2 14.0691 2.59695 14.666 3.33333 14.666H12.6667C13.403 14.666 14 14.0691 14 13.3327V3.99935C14 3.26297 13.403 2.66602 12.6667 2.66602Z" stroke-width="1.5" stroke-linecap="round" stroke-linejoin="round" />
            <path d="M10.666 1.33398V4.00065" stroke-width="1.5" stroke-linecap="round" stroke-linejoin="round" />
            <path d="M5.33398 1.33398V4.00065" stroke-width="1.5" stroke-linecap="round" stroke-linejoin="round" />
            <path d="M2 6.66602H14" stroke-width="1.5" stroke-linecap="round" stroke-linejoin="round" />
        </symbol>
        <symbol id="icon-edit" viewBox="0 0 14 14">
            <path d="M9.91797 1.75083C10.0712 1.59762 10.2531 1.47609 10.4532 1.39317C10.6534 1.31025 10.868 1.26758 11.0846 1.26758C11.3013 1.26758 11.5159 1.31025 11.716 1.39317C11.9162 1.47609 12.0981 1.59762 12.2513 1.75083C12.4045 1.90404 12.526 2.08592 12.609 2.2861C12.6919 2.48628 12.7346 2.70082 12.7346 2.91749C12.7346 3.13416 12.6919 3.34871 12.609 3.54889C12.526 3.74907 12.4045 3.93095 12.2513 4.08416L4.3763 11.9592L1.16797 12.8342L2.04297 9.62583L9.91797 1.75083Z" stroke-width="1.3" stroke-linecap="round" stroke-linejoin="round" />
        </symbol>
        <symbol id="icon-delete" viewBox="0 0 16 16">
            <path d="M2 4H3.33333H14" stroke-width="1.3" stroke-linecap="round" stroke-linejoin="round" />
            <path d="M12.6667 3.99998V13.3333C12.6667 13.6869 12.5262 14.0261 12.2761 14.2761C12.0261 14.5262 11.687 14.6666 11.3333 14.6666H4.66666C4.31304 14.6666 3.9739 14.5262 3.72385 14.2761C3.4738 14.0261 3.33333 13.6869 3.33333 13.3333V3.99998M5.33333 3.99998V2.66665C5.33333 2.31302 5.4738 1.97389 5.72385 1.72384C5.9739 1.47379 6.31304 1.33331 6.66666 1.33331H9.33333C9.68695 1.33331 10.0261 1.47379 10.2761 1.72384C10.5262 1.97389 10.6667 2.31302 10.6667 2.66665V3.99998" stroke-width="1.3" stroke-linecap="round" stroke-linejoin="round" />
            <path d="M6.66667 7.33331V11.3333" stroke-width="1.3" stroke-linecap="round" stroke-linejoin="round" />
            <path d="M9.33333 7.33331V11.3333" stroke-width="1.3" stroke-linecap="round" stroke-linejoin="round" />
        </symbol>
        <symbol id="icon-sidemenu" viewBox="0 0 32 32">
            <path d="M4 8.00134H28M4 16.0013H28M4 24.0013H28" stroke-width="2" stroke-linecap="round" stroke-linejoin="round" />
        </symbol>
        <symbol id="icon-decor" viewBox="0 0 465 346">
            <path d="M40.55 186.003C47.9321 167.732 68.7284 158.904 86.9997 166.286L365.844 278.947L339.111 345.113L60.2667 232.453C41.9954 225.071 33.1679 204.274 40.55 186.003Z" fill="#59B17A" fill-opacity="0.08" />
            <path d="M139.101 33.0832C146.483 14.8119 167.279 5.98438 185.55 13.3665L464.395 126.027L437.662 192.193L158.818 79.5329C140.546 72.1508 131.719 51.3546 139.101 33.0832Z" fill="#59B17A" fill-opacity="0.08" />
            <path d="M13.3664 78.9592C20.7485 60.6878 41.5448 51.8604 59.8161 59.2425L338.66 171.903L311.927 238.069L33.0831 125.409C14.8118 118.027 5.98432 97.2305 13.3664 78.9592Z" fill="#59B17A" fill-opacity="0.08" />
        </symbol>
    </defs>
</svg>
